<svg width="102" height="59" viewBox="0 0 102 59" fill="none" xmlns="http://www.w3.org/2000/svg">
<path d="M56.0547 57.3125H44.8828V17.3125C44.8828 16.5312 44.7266 15.8021 44.4141 15.125C44.1276 14.4479 43.724 13.862 43.2031 13.3672C42.7083 12.8464 42.1224 12.4427 41.4453 12.1562C40.7682 11.8698 40.0391 11.7266 39.2578 11.7266C38.4766 11.7266 37.7474 11.8698 37.0703 12.1562C36.3932 12.4427 35.7943 12.8464 35.2734 13.3672C34.7786 13.862 34.388 14.4479 34.1016 15.125C33.8151 15.8021 33.6719 16.5312 33.6719 17.3125V57.3125H22.4609V17.3125C22.4609 16.5312 22.3177 15.8021 22.0312 15.125C21.7448 14.4479 21.3411 13.862 20.8203 13.3672C20.3255 12.8464 19.7396 12.4427 19.0625 12.1562C18.3854 11.8698 17.6562 11.7266 16.875 11.7266C16.0938 11.7266 15.3646 11.8698 14.6875 12.1562C14.0104 12.4427 13.4115 12.8464 12.8906 13.3672C12.3958 13.862 12.0052 14.4479 11.7188 15.125C11.4323 15.8021 11.2891 16.5312 11.2891 17.3125V57.3125H0.078125V17.3125C0.078125 14.9948 0.507812 12.8203 1.36719 10.7891C2.25261 8.73177 3.45052 6.94792 4.96094 5.4375C6.49739 3.90104 8.28125 2.70312 10.3125 1.84375C12.3698 0.958333 14.5573 0.515625 16.875 0.515625C18.9583 0.515625 20.9635 0.893229 22.8906 1.64844C24.8177 2.3776 26.5495 3.44531 28.0859 4.85156C29.6224 3.44531 31.3411 2.3776 33.2422 1.64844C35.1693 0.893229 37.1745 0.515625 39.2578 0.515625C41.5755 0.515625 43.75 0.958333 45.7812 1.84375C47.8385 2.70312 49.6224 3.90104 51.1328 5.4375C52.6693 6.94792 53.8672 8.73177 54.7266 10.7891C55.612 12.8203 56.0547 14.9948 56.0547 17.3125V57.3125Z" fill="#1342F3"/>
<path fill-rule="evenodd" clip-rule="evenodd" d="M82.3828 47.3516C81.9662 47.2995 81.5495 47.2083 81.1328 47.0781L101.133 22.9766C100.143 21.5703 98.9974 20.3073 97.6953 19.1875C96.3932 18.0417 94.987 17.0781 93.4766 16.2969C91.9922 15.5156 90.4167 14.9167 88.75 14.5C87.0833 14.0833 85.3776 13.875 83.6328 13.875C80.6901 13.875 77.9167 14.4089 75.3125 15.4766C72.7344 16.5443 70.4688 18.0417 68.5156 19.9688C66.5885 21.8958 65.0651 24.2266 63.9453 26.9609C62.8255 29.6953 62.2656 32.7161 62.2656 36.0234C62.2656 39.2526 62.8255 42.2214 63.9453 44.9297C65.0651 47.612 66.5885 49.9297 68.5156 51.8828C70.4688 53.8359 72.7344 55.3594 75.3125 56.4531C77.9167 57.5469 80.6901 58.0938 83.6328 58.0938C85.3776 58.0938 87.0703 57.8854 88.7109 57.4688C90.3776 57.0781 91.9531 56.4922 93.4375 55.7109C94.9479 54.9297 96.3412 53.9792 97.6172 52.8594C98.9193 51.7396 100.065 50.4766 101.055 49.0703L93.2422 41.2188C92.8255 42.1562 92.2787 43.0156 91.6016 43.7969C90.9505 44.5521 90.1953 45.2031 89.3359 45.75C88.5026 46.2708 87.6042 46.6745 86.6406 46.9609C85.6771 47.2474 84.6745 47.3906 83.6328 47.3906C83.2162 47.3906 82.7995 47.3776 82.3828 47.3516ZM85.1172 24.7344C85.612 24.7865 86.1068 24.9036 86.6016 25.0859L74.1797 41.5703C73.9713 41.2057 73.8021 40.7891 73.6719 40.3203C73.5417 39.8516 73.4245 39.3698 73.3203 38.875C73.2422 38.3542 73.1771 37.8464 73.125 37.3516C73.099 36.8568 73.0859 36.4141 73.0859 36.0234C73.0859 34.2786 73.3594 32.7161 73.9062 31.3359C74.4531 29.9297 75.1953 28.7318 76.1328 27.7422C77.0963 26.7526 78.2162 25.9974 79.4922 25.4766C80.7943 24.9297 82.1745 24.6562 83.6328 24.6562C84.1537 24.6562 84.6484 24.6823 85.1172 24.7344Z" fill="#1342F3"/>
</svg>
